<svg width="36" height="36" viewBox="0 0 36 36" fill="none" xmlns="http://www.w3.org/2000/svg">
<path d="M36 18C36 8.05887 27.9411 0 18 0C8.05887 0 0 8.05887 0 18C0 27.9411 8.05887 36 18 36C27.9411 36 36 27.9411 36 18Z" fill="white"/>
<path d="M35.5 18C35.5 8.33502 27.665 0.5 18 0.5C8.33502 0.5 0.5 8.33502 0.5 18C0.5 27.665 8.33502 35.5 18 35.5C27.665 35.5 35.5 27.665 35.5 18Z" stroke="#EEEEEE"/>
<path fill-rule="evenodd" clip-rule="evenodd" d="M15.293 22.707C15.1055 22.5195 15.0002 22.2652 15.0002 22C15.0002 21.7349 15.1055 21.4805 15.293 21.293L18.586 18L15.293 14.707C15.1974 14.6148 15.1213 14.5044 15.0689 14.3824C15.0164 14.2604 14.9889 14.1292 14.9877 13.9964C14.9866 13.8636 15.0119 13.732 15.0621 13.6091C15.1124 13.4862 15.1867 13.3745 15.2806 13.2806C15.3745 13.1867 15.4861 13.1125 15.609 13.0622C15.7319 13.0119 15.8636 12.9866 15.9964 12.9878C16.1291 12.9889 16.2604 13.0165 16.3824 13.0689C16.5044 13.1213 16.6147 13.1975 16.707 13.293L20.707 17.293C20.8944 17.4805 20.9997 17.7349 20.9997 18C20.9997 18.2652 20.8944 18.5195 20.707 18.707L16.707 22.707C16.5194 22.8945 16.2651 22.9998 16 22.9998C15.7348 22.9998 15.4805 22.8945 15.293 22.707Z" fill="#919191"/>
</svg>
