<svg width="72" height="70" viewBox="0 0 72 70" fill="none" xmlns="http://www.w3.org/2000/svg">
<g filter="url(#filter0_d_1_258)">
<path d="M62 30C62 15.6406 50.3594 4 36 4C21.6406 4 10 15.6406 10 30C10 44.3594 21.6406 56 36 56C50.3594 56 62 44.3594 62 30Z" fill="url(#paint0_linear_1_258)"/>
</g>
<path d="M43.2179 22.4276L25.3753 27.1029C24.8943 27.2297 24.4607 27.4938 24.1274 27.8631C23.7941 28.2323 23.5756 28.6907 23.4985 29.1821C23.4111 29.6575 23.4673 30.1483 23.6599 30.5916C23.8525 31.035 24.1729 31.411 24.5801 31.6715L29.9576 35.1215C29.9842 35.1644 30.0147 35.2047 30.0485 35.2422C30.0751 35.285 30.1056 35.3254 30.1394 35.3628L31.9714 41.4817C32.1096 41.9449 32.3826 42.3565 32.7557 42.6639C33.1287 42.9714 33.5849 43.1607 34.066 43.2077C34.7165 43.2926 35.3747 43.1237 35.904 42.7361C36.1781 42.5293 36.4087 42.2705 36.5826 41.9743L45.9955 26.1142C46.2546 25.6899 46.3802 25.1975 46.356 24.7009C46.3317 24.2043 46.1588 23.7265 45.8596 23.3294C45.5605 22.9323 45.1488 22.6343 44.6782 22.4741C44.2075 22.3139 43.6996 22.2988 43.2203 22.4308L43.2179 22.4276ZM25.0396 29.4502C25.0765 29.1946 25.2126 28.9637 25.4185 28.8077C25.5251 28.7276 25.6467 28.6697 25.7761 28.6373L43.6362 23.9487L43.7282 23.9395L30.7532 33.7154L25.4296 30.3237C25.2835 30.2351 25.1679 30.104 25.0982 29.9479C25.0285 29.7918 25.008 29.6182 25.0396 29.4502ZM35.2178 41.1688C35.1204 41.3382 34.9748 41.4747 34.7994 41.5609C34.624 41.6471 34.4269 41.679 34.2333 41.6525C34.0625 41.6367 33.9006 41.569 33.7695 41.4585C33.6383 41.348 33.544 41.1999 33.4994 41.0343L31.7074 34.9818L44.684 25.2047L44.6434 25.2954L35.2178 41.1688Z" fill="white"/>
<defs>
<filter id="filter0_d_1_258" x="0" y="0" width="72" height="72" filterUnits="userSpaceOnUse" color-interpolation-filters="sRGB">
<feFlood flood-opacity="0" result="BackgroundImageFix"/>
<feColorMatrix in="SourceAlpha" type="matrix" values="0 0 0 0 0 0 0 0 0 0 0 0 0 0 0 0 0 0 127 0" result="hardAlpha"/>
<feOffset dy="6"/>
<feGaussianBlur stdDeviation="5"/>
<feColorMatrix type="matrix" values="0 0 0 0 1 0 0 0 0 0.513726 0 0 0 0 0.247059 0 0 0 0.302 0"/>
<feBlend mode="normal" in2="BackgroundImageFix" result="effect1_dropShadow_1_258"/>
<feBlend mode="normal" in="SourceGraphic" in2="effect1_dropShadow_1_258" result="shape"/>
</filter>
<linearGradient id="paint0_linear_1_258" x1="36" y1="4" x2="36" y2="56" gradientUnits="userSpaceOnUse">
<stop stop-color="#4DD969"/>
<stop offset="1" stop-color="#28CD56"/>
</linearGradient>
</defs>
</svg>
