<svg width="58" height="58" viewBox="0 0 58 58" fill="none" xmlns="http://www.w3.org/2000/svg">
<g filter="url(#filter0_d_1_310)">
<path d="M29 45C40.598 45 50 35.598 50 24C50 12.402 40.598 3 29 3C17.402 3 8 12.402 8 24C8 35.598 17.402 45 29 45Z" fill="#E8FDED"/>
</g>
<path d="M32.481 33.131C29.796 33.131 26.638 31.706 23.981 29.055C19.748 24.822 18.648 19.296 21.469 16.474C22.2812 15.6523 23.3422 15.1221 24.487 14.966L25.163 14.866L27.648 20.67L25.163 21.913C25.8583 23.1581 26.7345 24.2931 27.763 25.281C28.7509 26.2961 29.879 27.1645 31.113 27.86L32.282 25.571L38.049 26.395L38.083 27.131C38.1596 27.937 38.0638 28.7501 37.8021 29.5163C37.5404 30.2825 37.1187 30.9843 36.565 31.575C36.0226 32.0939 35.3818 32.4988 34.6804 32.7661C33.979 33.0333 33.2311 33.1574 32.481 33.131ZM24.09 16.882C23.5752 17.0554 23.1084 17.3472 22.727 17.734C20.681 19.779 21.834 24.388 25.243 27.797C28.652 31.206 33.261 32.357 35.307 30.313C35.9105 29.6656 36.2609 28.8225 36.294 27.938L33.294 27.51L32.725 28.66C32.6194 28.8738 32.4715 29.0638 32.2901 29.2186C32.1087 29.3733 31.8977 29.4895 31.67 29.56C31.4378 29.632 31.1936 29.6566 30.9518 29.6326C30.71 29.6086 30.4754 29.5363 30.262 29.42C28.8772 28.6445 27.6107 27.6746 26.501 26.54C25.3518 25.4292 24.372 24.1556 23.593 22.76C23.4808 22.5494 23.4119 22.3186 23.3902 22.081C23.3686 21.8434 23.3947 21.6039 23.467 21.3765C23.5393 21.1492 23.6563 20.9386 23.8112 20.7571C23.9661 20.5757 24.1558 20.4271 24.369 20.32L25.348 19.829L24.09 16.882Z" fill="url(#paint0_linear_1_310)"/>
<defs>
<filter id="filter0_d_1_310" x="0" y="0" width="58" height="58" filterUnits="userSpaceOnUse" color-interpolation-filters="sRGB">
<feFlood flood-opacity="0" result="BackgroundImageFix"/>
<feColorMatrix in="SourceAlpha" type="matrix" values="0 0 0 0 0 0 0 0 0 0 0 0 0 0 0 0 0 0 127 0" result="hardAlpha"/>
<feOffset dy="5"/>
<feGaussianBlur stdDeviation="4"/>
<feColorMatrix type="matrix" values="0 0 0 0 0.157483 0 0 0 0 0.804167 0 0 0 0 0.338554 0 0 0 0.3 0"/>
<feBlend mode="normal" in2="BackgroundImageFix" result="effect1_dropShadow_1_310"/>
<feBlend mode="normal" in="SourceGraphic" in2="effect1_dropShadow_1_310" result="shape"/>
</filter>
<linearGradient id="paint0_linear_1_310" x1="29.0083" y1="14.866" x2="29.0083" y2="33.1345" gradientUnits="userSpaceOnUse">
<stop stop-color="#4DD969"/>
<stop offset="1" stop-color="#28CD56"/>
</linearGradient>
</defs>
</svg>
