<svg width="182" height="35" viewBox="0 0 182 35" fill="none" xmlns="http://www.w3.org/2000/svg">
<path d="M17.5 35C27.165 35 35 27.165 35 17.5C35 7.83502 27.165 0 17.5 0C7.83502 0 0 7.83502 0 17.5C0 27.165 7.83502 35 17.5 35Z" fill="#F6F6F6"/>
<path d="M17.5 28C23.299 28 28 23.299 28 17.5C28 11.701 23.299 7 17.5 7C11.701 7 7 11.701 7 17.5C7 23.299 11.701 28 17.5 28Z" fill="#BEBEBE"/>
<path d="M66.5 35C76.165 35 84 27.165 84 17.5C84 7.83502 76.165 0 66.5 0C56.835 0 49 7.83502 49 17.5C49 27.165 56.835 35 66.5 35Z" fill="#F6F6F6"/>
<path d="M66.5 28C72.299 28 77 23.299 77 17.5C77 11.701 72.299 7 66.5 7C60.701 7 56 11.701 56 17.5C56 23.299 60.701 28 66.5 28Z" fill="#BEBEBE"/>
<path d="M115.5 35C125.165 35 133 27.165 133 17.5C133 7.83502 125.165 0 115.5 0C105.835 0 98 7.83502 98 17.5C98 27.165 105.835 35 115.5 35Z" fill="#F6F6F6"/>
<path d="M115.5 28C121.299 28 126 23.299 126 17.5C126 11.701 121.299 7 115.5 7C109.701 7 105 11.701 105 17.5C105 23.299 109.701 28 115.5 28Z" fill="#BEBEBE"/>
<path d="M164.5 35C174.165 35 182 27.165 182 17.5C182 7.83502 174.165 0 164.5 0C154.835 0 147 7.83502 147 17.5C147 27.165 154.835 35 164.5 35Z" fill="#F6F6F6"/>
<path d="M164.5 28C170.299 28 175 23.299 175 17.5C175 11.701 170.299 7 164.5 7C158.701 7 154 11.701 154 17.5C154 23.299 158.701 28 164.5 28Z" fill="#BEBEBE"/>
</svg>
