<svg width="86" height="34" viewBox="0 0 86 34" fill="none" xmlns="http://www.w3.org/2000/svg">
<path d="M69 0H17C7.61116 0 0 7.61116 0 17C0 26.3888 7.61116 34 17 34H69C78.3888 34 86 26.3888 86 17C86 7.61116 78.3888 0 69 0Z" fill="url(#paint0_linear_1_232)"/>
<path d="M69 0.5H17C7.8873 0.5 0.5 7.8873 0.5 17C0.5 26.1127 7.8873 33.5 17 33.5H69C78.1127 33.5 85.5 26.1127 85.5 17C85.5 7.8873 78.1127 0.5 69 0.5Z" stroke="url(#paint1_linear_1_232)"/>
<path d="M25.102 22.5H26.47V18.852H29.23V17.736H26.47V15.276H30.01V14.16H25.102V22.5ZM37.5778 19.188C37.5778 17.112 36.0898 15.78 34.2058 15.78C32.3218 15.78 30.8338 17.112 30.8338 19.188C30.8338 21.264 32.2618 22.608 34.1458 22.608C36.0418 22.608 37.5778 21.264 37.5778 19.188ZM32.2258 19.188C32.2258 17.688 33.1498 16.968 34.1818 16.968C35.2018 16.968 36.1738 17.688 36.1738 19.188C36.1738 20.688 35.1658 21.42 34.1458 21.42C33.1138 21.42 32.2258 20.688 32.2258 19.188ZM38.9302 22.5H40.2982V13.62H38.9302V22.5ZM42.0942 22.5H43.4622V13.62H42.0942V22.5ZM51.5583 19.188C51.5583 17.112 50.0703 15.78 48.1863 15.78C46.3023 15.78 44.8143 17.112 44.8143 19.188C44.8143 21.264 46.2423 22.608 48.1263 22.608C50.0223 22.608 51.5583 21.264 51.5583 19.188ZM46.2063 19.188C46.2063 17.688 47.1303 16.968 48.1623 16.968C49.1823 16.968 50.1543 17.688 50.1543 19.188C50.1543 20.688 49.1463 21.42 48.1263 21.42C47.0943 21.42 46.2063 20.688 46.2063 19.188ZM54.1946 22.5H55.6346L56.9666 17.616L58.2986 22.5H59.7386L61.7906 15.888H60.4466L59.0786 21.18L57.7346 15.888H56.3066L54.9026 21.204L53.5226 15.888H52.1306L54.1946 22.5Z" fill="white"/>
<defs>
<linearGradient id="paint0_linear_1_232" x1="43" y1="0" x2="43" y2="34" gradientUnits="userSpaceOnUse">
<stop stop-color="#4DD969"/>
<stop offset="1" stop-color="#28CD56"/>
</linearGradient>
<linearGradient id="paint1_linear_1_232" x1="43" y1="0.5" x2="43" y2="33.5" gradientUnits="userSpaceOnUse">
<stop stop-color="#4DD969"/>
<stop offset="1" stop-color="#28CD56"/>
</linearGradient>
</defs>
</svg>
