<svg width="325" height="58" viewBox="0 0 325 58" fill="none" xmlns="http://www.w3.org/2000/svg">
<path d="M317 0H8C3.58172 0 0 3.58172 0 8V50C0 54.4183 3.58172 58 8 58H317C321.418 58 325 54.4183 325 50V8C325 3.58172 321.418 0 317 0Z" fill="url(#paint0_linear_1_5)"/>
<path d="M130.958 28.57C130.706 28.0847 130.356 27.7207 129.908 27.478C129.46 27.226 128.942 27.1 128.354 27.1C127.71 27.1 127.136 27.2447 126.632 27.534C126.128 27.8233 125.731 28.234 125.442 28.766C125.162 29.298 125.022 29.914 125.022 30.614C125.022 31.314 125.162 31.9347 125.442 32.476C125.731 33.008 126.128 33.4187 126.632 33.708C127.136 33.9973 127.71 34.142 128.354 34.142C129.222 34.142 129.927 33.8993 130.468 33.414C131.009 32.9287 131.341 32.2707 131.462 31.44H127.808V30.166H133.17V31.412C133.067 32.168 132.797 32.8633 132.358 33.498C131.929 34.1327 131.364 34.6413 130.664 35.024C129.973 35.3973 129.203 35.584 128.354 35.584C127.439 35.584 126.604 35.374 125.848 34.954C125.092 34.5247 124.49 33.932 124.042 33.176C123.603 32.42 123.384 31.566 123.384 30.614C123.384 29.662 123.603 28.808 124.042 28.052C124.49 27.296 125.092 26.708 125.848 26.288C126.613 25.8587 127.449 25.644 128.354 25.644C129.39 25.644 130.309 25.9007 131.112 26.414C131.924 26.918 132.512 27.6367 132.876 28.57H130.958ZM141.814 31.454C141.814 31.7433 141.795 32.0047 141.758 32.238H135.864C135.911 32.854 136.139 33.3487 136.55 33.722C136.961 34.0953 137.465 34.282 138.062 34.282C138.921 34.282 139.527 33.9227 139.882 33.204H141.604C141.371 33.9133 140.946 34.4967 140.33 34.954C139.723 35.402 138.967 35.626 138.062 35.626C137.325 35.626 136.662 35.4627 136.074 35.136C135.495 34.8 135.038 34.3333 134.702 33.736C134.375 33.1293 134.212 32.4293 134.212 31.636C134.212 30.8427 134.371 30.1473 134.688 29.55C135.015 28.9433 135.467 28.4767 136.046 28.15C136.634 27.8233 137.306 27.66 138.062 27.66C138.79 27.66 139.439 27.8187 140.008 28.136C140.577 28.4533 141.021 28.9013 141.338 29.48C141.655 30.0493 141.814 30.7073 141.814 31.454ZM140.148 30.95C140.139 30.362 139.929 29.8907 139.518 29.536C139.107 29.1813 138.599 29.004 137.992 29.004C137.441 29.004 136.97 29.1813 136.578 29.536C136.186 29.8813 135.953 30.3527 135.878 30.95H140.148ZM145.247 29.088V33.358C145.247 33.6473 145.312 33.8573 145.443 33.988C145.583 34.1093 145.816 34.17 146.143 34.17H147.123V35.5H145.863C145.144 35.5 144.593 35.332 144.211 34.996C143.828 34.66 143.637 34.114 143.637 33.358V29.088H142.727V27.786H143.637V25.868H145.247V27.786H147.123V29.088H145.247ZM155.03 35.626C154.424 35.626 153.878 35.5187 153.392 35.304C152.916 35.08 152.538 34.7813 152.258 34.408C151.978 34.0253 151.829 33.6007 151.81 33.134H153.462C153.49 33.4607 153.644 33.736 153.924 33.96C154.214 34.1747 154.573 34.282 155.002 34.282C155.45 34.282 155.796 34.198 156.038 34.03C156.29 33.8527 156.416 33.6287 156.416 33.358C156.416 33.0687 156.276 32.854 155.996 32.714C155.726 32.574 155.292 32.42 154.694 32.252C154.116 32.0933 153.644 31.9393 153.28 31.79C152.916 31.6407 152.599 31.412 152.328 31.104C152.067 30.796 151.936 30.39 151.936 29.886C151.936 29.4753 152.058 29.102 152.3 28.766C152.543 28.4207 152.888 28.15 153.336 27.954C153.794 27.758 154.316 27.66 154.904 27.66C155.782 27.66 156.486 27.884 157.018 28.332C157.56 28.7707 157.849 29.3727 157.886 30.138H156.29C156.262 29.7927 156.122 29.5173 155.87 29.312C155.618 29.1067 155.278 29.004 154.848 29.004C154.428 29.004 154.106 29.0833 153.882 29.242C153.658 29.4007 153.546 29.6107 153.546 29.872C153.546 30.0773 153.621 30.25 153.77 30.39C153.92 30.53 154.102 30.642 154.316 30.726C154.531 30.8007 154.848 30.8987 155.268 31.02C155.828 31.1693 156.286 31.3233 156.64 31.482C157.004 31.6313 157.317 31.8553 157.578 32.154C157.84 32.4527 157.975 32.8493 157.984 33.344C157.984 33.7827 157.863 34.1747 157.62 34.52C157.378 34.8653 157.032 35.136 156.584 35.332C156.146 35.528 155.628 35.626 155.03 35.626ZM161.571 29.088V33.358C161.571 33.6473 161.636 33.8573 161.767 33.988C161.907 34.1093 162.14 34.17 162.467 34.17H163.447V35.5H162.187C161.468 35.5 160.918 35.332 160.535 34.996C160.152 34.66 159.961 34.114 159.961 33.358V29.088H159.051V27.786H159.961V25.868H161.571V27.786H163.447V29.088H161.571ZM164.386 31.608C164.386 30.8333 164.545 30.1473 164.862 29.55C165.189 28.9527 165.627 28.4907 166.178 28.164C166.738 27.828 167.354 27.66 168.026 27.66C168.633 27.66 169.16 27.7813 169.608 28.024C170.065 28.2573 170.429 28.5513 170.7 28.906V27.786H172.31V35.5H170.7V34.352C170.429 34.716 170.061 35.0193 169.594 35.262C169.127 35.5047 168.595 35.626 167.998 35.626C167.335 35.626 166.729 35.458 166.178 35.122C165.627 34.7767 165.189 34.3007 164.862 33.694C164.545 33.078 164.386 32.3827 164.386 31.608ZM170.7 31.636C170.7 31.104 170.588 30.642 170.364 30.25C170.149 29.858 169.865 29.5593 169.51 29.354C169.155 29.1487 168.773 29.046 168.362 29.046C167.951 29.046 167.569 29.1487 167.214 29.354C166.859 29.55 166.57 29.844 166.346 30.236C166.131 30.6187 166.024 31.076 166.024 31.608C166.024 32.14 166.131 32.6067 166.346 33.008C166.57 33.4093 166.859 33.7173 167.214 33.932C167.578 34.1373 167.961 34.24 168.362 34.24C168.773 34.24 169.155 34.1373 169.51 33.932C169.865 33.7267 170.149 33.428 170.364 33.036C170.588 32.6347 170.7 32.168 170.7 31.636ZM176.002 28.906C176.236 28.514 176.544 28.2107 176.926 27.996C177.318 27.772 177.78 27.66 178.312 27.66V29.312H177.906C177.281 29.312 176.805 29.4707 176.478 29.788C176.161 30.1053 176.002 30.656 176.002 31.44V35.5H174.406V27.786H176.002V28.906ZM181.641 29.088V33.358C181.641 33.6473 181.707 33.8573 181.837 33.988C181.977 34.1093 182.211 34.17 182.537 34.17H183.517V35.5H182.257C181.539 35.5 180.988 35.332 180.605 34.996C180.223 34.66 180.031 34.114 180.031 33.358V29.088H179.121V27.786H180.031V25.868H181.641V27.786H183.517V29.088H181.641ZM192.058 31.454C192.058 31.7433 192.04 32.0047 192.002 32.238H186.108C186.155 32.854 186.384 33.3487 186.794 33.722C187.205 34.0953 187.709 34.282 188.306 34.282C189.165 34.282 189.772 33.9227 190.126 33.204H191.848C191.615 33.9133 191.19 34.4967 190.574 34.954C189.968 35.402 189.212 35.626 188.306 35.626C187.569 35.626 186.906 35.4627 186.318 35.136C185.74 34.8 185.282 34.3333 184.946 33.736C184.62 33.1293 184.456 32.4293 184.456 31.636C184.456 30.8427 184.615 30.1473 184.932 29.55C185.259 28.9433 185.712 28.4767 186.29 28.15C186.878 27.8233 187.55 27.66 188.306 27.66C189.034 27.66 189.683 27.8187 190.252 28.136C190.822 28.4533 191.265 28.9013 191.582 29.48C191.9 30.0493 192.058 30.7073 192.058 31.454ZM190.392 30.95C190.383 30.362 190.173 29.8907 189.762 29.536C189.352 29.1813 188.843 29.004 188.236 29.004C187.686 29.004 187.214 29.1813 186.822 29.536C186.43 29.8813 186.197 30.3527 186.122 30.95H190.392ZM193.097 31.608C193.097 30.8333 193.256 30.1473 193.573 29.55C193.9 28.9527 194.338 28.4907 194.889 28.164C195.449 27.828 196.07 27.66 196.751 27.66C197.255 27.66 197.75 27.772 198.235 27.996C198.73 28.2107 199.122 28.5 199.411 28.864V25.14H201.021V35.5H199.411V34.338C199.15 34.7113 198.786 35.0193 198.319 35.262C197.862 35.5047 197.334 35.626 196.737 35.626C196.065 35.626 195.449 35.458 194.889 35.122C194.338 34.7767 193.9 34.3007 193.573 33.694C193.256 33.078 193.097 32.3827 193.097 31.608ZM199.411 31.636C199.411 31.104 199.299 30.642 199.075 30.25C198.86 29.858 198.576 29.5593 198.221 29.354C197.866 29.1487 197.484 29.046 197.073 29.046C196.662 29.046 196.28 29.1487 195.925 29.354C195.57 29.55 195.281 29.844 195.057 30.236C194.842 30.6187 194.735 31.076 194.735 31.608C194.735 32.14 194.842 32.6067 195.057 33.008C195.281 33.4093 195.57 33.7173 195.925 33.932C196.289 34.1373 196.672 34.24 197.073 34.24C197.484 34.24 197.866 34.1373 198.221 33.932C198.576 33.7267 198.86 33.428 199.075 33.036C199.299 32.6347 199.411 32.168 199.411 31.636Z" fill="white"/>
<defs>
<linearGradient id="paint0_linear_1_5" x1="162.5" y1="0" x2="162.5" y2="58" gradientUnits="userSpaceOnUse">
<stop stop-color="#4DD969"/>
<stop offset="1" stop-color="#28CD56"/>
</linearGradient>
</defs>
</svg>
