<svg width="325" height="58" viewBox="0 0 325 58" fill="none" xmlns="http://www.w3.org/2000/svg">
<path d="M317 0H8C3.58172 0 0 3.58172 0 8V50C0 54.4183 3.58172 58 8 58H317C321.418 58 325 54.4183 325 50V8C325 3.58172 321.418 0 317 0Z" fill="#F5FFF8"/>
<path d="M317 0.5H8C3.85786 0.5 0.5 3.85786 0.5 8V50C0.5 54.1421 3.85786 57.5 8 57.5H317C321.142 57.5 324.5 54.1421 324.5 50V8C324.5 3.85786 321.142 0.5 317 0.5Z" stroke="#C9FFD5"/>
<path d="M137.776 25.27V35H142.662V33.712H139.372V25.27H137.776ZM151.347 31.136C151.347 28.714 149.611 27.16 147.413 27.16C145.215 27.16 143.479 28.714 143.479 31.136C143.479 33.558 145.145 35.126 147.343 35.126C149.555 35.126 151.347 33.558 151.347 31.136ZM145.103 31.136C145.103 29.386 146.181 28.546 147.385 28.546C148.575 28.546 149.709 29.386 149.709 31.136C149.709 32.886 148.533 33.74 147.343 33.74C146.139 33.74 145.103 32.886 145.103 31.136ZM152.392 31.108C152.392 33.488 154.002 35.126 156.032 35.126C157.292 35.126 158.216 34.496 158.706 33.838V35.126C158.706 36.666 157.782 37.422 156.55 37.422C155.444 37.422 154.59 36.876 154.352 36.078H152.77C152.966 37.786 154.492 38.808 156.55 38.808C158.958 38.808 160.316 37.226 160.316 35.126V27.286H158.706V28.406C158.23 27.748 157.292 27.16 156.032 27.16C154.002 27.16 152.392 28.728 152.392 31.108ZM158.706 31.136C158.706 32.802 157.572 33.74 156.368 33.74C155.178 33.74 154.03 32.774 154.03 31.108C154.03 29.442 155.178 28.546 156.368 28.546C157.572 28.546 158.706 29.484 158.706 31.136ZM173.399 31.136C173.399 28.714 171.663 27.16 169.465 27.16C167.267 27.16 165.531 28.714 165.531 31.136C165.531 33.558 167.197 35.126 169.395 35.126C171.607 35.126 173.399 33.558 173.399 31.136ZM167.155 31.136C167.155 29.386 168.233 28.546 169.437 28.546C170.627 28.546 171.761 29.386 171.761 31.136C171.761 32.886 170.585 33.74 169.395 33.74C168.191 33.74 167.155 32.886 167.155 31.136ZM181.963 27.286H180.367V31.584C180.367 32.998 179.597 33.726 178.421 33.726C177.259 33.726 176.489 32.998 176.489 31.584V27.286H174.907V31.822C174.907 33.978 176.279 35.112 178.085 35.112C178.995 35.112 179.863 34.734 180.367 34.076V35H181.963V27.286ZM184.321 32.858C184.321 34.426 185.175 35 186.547 35H187.807V33.67H186.827C186.155 33.67 185.931 33.432 185.931 32.858V28.588H187.807V27.286H185.931V25.368H184.321V27.286H183.411V28.588H184.321V32.858Z" fill="#28CD56"/>
</svg>
