<svg width="144" height="60" viewBox="0 0 144 60" fill="none" xmlns="http://www.w3.org/2000/svg">
<g filter="url(#filter0_d_1_357)">
<path d="M114 2H30C18.9543 2 10 10.9543 10 22C10 33.0457 18.9543 42 30 42H114C125.046 42 134 33.0457 134 22C134 10.9543 125.046 2 114 2Z" fill="white"/>
<path d="M114 2.3H30C19.12 2.3 10.3 11.12 10.3 22C10.3 32.88 19.12 41.7 30 41.7H114C124.88 41.7 133.7 32.88 133.7 22C133.7 11.12 124.88 2.3 114 2.3Z" stroke="#EEEEEE" stroke-width="0.6"/>
</g>
<path d="M66.924 26.75H68.016V20.546L70.788 26.75H71.556L74.316 20.558V26.75H75.408V18.446H74.244L71.172 25.31L68.1 18.446H66.924V26.75ZM80.0559 20.99C81.1839 20.99 82.1439 21.698 82.1319 22.982H77.9799C78.0999 21.698 78.9879 20.99 80.0559 20.99ZM83.1279 24.722H81.9519C81.7119 25.43 81.0879 25.934 80.1039 25.934C78.9879 25.934 78.0519 25.202 77.9679 23.87H83.2239C83.2479 23.642 83.2599 23.45 83.2599 23.21C83.2599 21.41 82.0119 20.066 80.1039 20.066C78.1839 20.066 76.8519 21.374 76.8519 23.45C76.8519 25.538 78.2319 26.858 80.1039 26.858C81.7359 26.858 82.7919 25.922 83.1279 24.722ZM89.4293 24.962C89.3813 22.61 85.5653 23.462 85.5653 21.902C85.5653 21.374 86.0453 20.99 86.8493 20.99C87.7253 20.99 88.2293 21.47 88.2773 22.13H89.3693C89.2973 20.846 88.3373 20.066 86.8853 20.066C85.4213 20.066 84.4733 20.894 84.4733 21.902C84.4733 24.35 88.3613 23.498 88.3613 24.962C88.3613 25.502 87.8813 25.934 87.0173 25.934C86.0933 25.934 85.5293 25.454 85.4693 24.818H84.3413C84.4133 26.018 85.4933 26.858 87.0293 26.858C88.4813 26.858 89.4293 26.042 89.4293 24.962ZM95.6989 24.962C95.6509 22.61 91.8349 23.462 91.8349 21.902C91.8349 21.374 92.3149 20.99 93.1189 20.99C93.9949 20.99 94.4989 21.47 94.5469 22.13H95.6389C95.5669 20.846 94.6069 20.066 93.1549 20.066C91.6909 20.066 90.7429 20.894 90.7429 21.902C90.7429 24.35 94.6309 23.498 94.6309 24.962C94.6309 25.502 94.1509 25.934 93.2869 25.934C92.3629 25.934 91.7989 25.454 91.7389 24.818H90.6109C90.6829 26.018 91.7629 26.858 93.2989 26.858C94.7509 26.858 95.6989 26.042 95.6989 24.962ZM96.8324 23.438C96.8324 25.478 98.1884 26.858 99.9404 26.858C101.152 26.858 102.004 26.234 102.4 25.526V26.75H103.504V20.174H102.4V21.374C102.016 20.69 101.176 20.066 99.9524 20.066C98.1884 20.066 96.8324 21.386 96.8324 23.438ZM102.4 23.45C102.4 24.998 101.368 25.898 100.168 25.898C98.9684 25.898 97.9484 24.986 97.9484 23.438C97.9484 21.89 98.9684 21.014 100.168 21.014C101.368 21.014 102.4 21.926 102.4 23.45ZM104.942 23.438C104.942 25.478 106.298 26.858 108.062 26.858C109.262 26.858 110.114 26.222 110.51 25.514V26.894C110.51 28.298 109.634 29.042 108.47 29.042C107.39 29.042 106.61 28.502 106.37 27.71H105.29C105.506 29.114 106.742 29.99 108.47 29.99C110.402 29.99 111.614 28.706 111.614 26.894V20.174H110.51V21.374C110.126 20.666 109.262 20.066 108.062 20.066C106.298 20.066 104.942 21.386 104.942 23.438ZM110.51 23.45C110.51 24.998 109.478 25.898 108.278 25.898C107.078 25.898 106.058 24.986 106.058 23.438C106.058 21.89 107.078 21.014 108.278 21.014C109.478 21.014 110.51 21.926 110.51 23.45ZM116.255 20.99C117.383 20.99 118.343 21.698 118.331 22.982H114.179C114.299 21.698 115.187 20.99 116.255 20.99ZM119.327 24.722H118.151C117.911 25.43 117.287 25.934 116.303 25.934C115.187 25.934 114.251 25.202 114.167 23.87H119.423C119.447 23.642 119.459 23.45 119.459 23.21C119.459 21.41 118.211 20.066 116.303 20.066C114.383 20.066 113.051 21.374 113.051 23.45C113.051 25.538 114.431 26.858 116.303 26.858C117.935 26.858 118.991 25.922 119.327 24.722Z" fill="#626262"/>
<path d="M49 31.25C48.8949 31.2507 48.7909 31.2285 48.6952 31.185C48.5996 31.1415 48.5145 31.0777 48.446 30.998L45.646 27.998H40.73C40.5376 27.999 40.3527 27.9237 40.2158 27.7885C40.0789 27.6533 40.0013 27.4694 40 27.277V15.972C40.0005 15.8766 40.0198 15.7823 40.0568 15.6945C40.0938 15.6066 40.1477 15.5268 40.2155 15.4598C40.2833 15.3927 40.3636 15.3397 40.4519 15.3037C40.5401 15.2677 40.6347 15.2495 40.73 15.25H57.271C57.4634 15.2492 57.6482 15.3248 57.7849 15.4601C57.9216 15.5955 57.9989 15.7796 58 15.972V27.279C57.9995 27.3743 57.9802 27.4686 57.9432 27.5565C57.9062 27.6444 57.8523 27.7241 57.7845 27.7912C57.7167 27.8582 57.6364 27.9113 57.5481 27.9473C57.4599 27.9833 57.3653 28.0015 57.27 28.001H52.351L49.537 31.018C49.4681 31.0914 49.3849 31.1498 49.2926 31.1897C49.2002 31.2296 49.1006 31.2501 49 31.25ZM41.459 26.556H45.968C46.0678 26.5567 46.1665 26.5777 46.258 26.6178C46.3494 26.6578 46.4318 26.7161 46.5 26.789L49 29.465L51.495 26.789C51.5639 26.7157 51.6471 26.6572 51.7395 26.6173C51.8318 26.5774 51.9314 26.5569 52.032 26.557H56.541V16.693H41.459V26.556Z" fill="#0F393A"/>
<path d="M45.883 22.504C46.3215 22.504 46.677 22.1489 46.677 21.711C46.677 21.273 46.3215 20.918 45.883 20.918C45.4445 20.918 45.089 21.273 45.089 21.711C45.089 22.1489 45.4445 22.504 45.883 22.504Z" fill="#0F393A"/>
<path d="M49.0001 22.504C49.4386 22.504 49.7941 22.1489 49.7941 21.711C49.7941 21.273 49.4386 20.918 49.0001 20.918C48.5615 20.918 48.2061 21.273 48.2061 21.711C48.2061 22.1489 48.5615 22.504 49.0001 22.504Z" fill="#0F393A"/>
<path d="M52.117 22.504C52.5555 22.504 52.911 22.1489 52.911 21.711C52.911 21.273 52.5555 20.918 52.117 20.918C51.6785 20.918 51.323 21.273 51.323 21.711C51.323 22.1489 51.6785 22.504 52.117 22.504Z" fill="#0F393A"/>
<path d="M29 27C31.7614 27 34 24.7614 34 22C34 19.2386 31.7614 17 29 17C26.2386 17 24 19.2386 24 22C24 24.7614 26.2386 27 29 27Z" fill="#0F9804"/>
<path d="M29 26.5C31.4853 26.5 33.5 24.4853 33.5 22C33.5 19.5147 31.4853 17.5 29 17.5C26.5147 17.5 24.5 19.5147 24.5 22C24.5 24.4853 26.5147 26.5 29 26.5Z" stroke="#F6F5EE"/>
<defs>
<filter id="filter0_d_1_357" x="0" y="0" width="144" height="60" filterUnits="userSpaceOnUse" color-interpolation-filters="sRGB">
<feFlood flood-opacity="0" result="BackgroundImageFix"/>
<feColorMatrix in="SourceAlpha" type="matrix" values="0 0 0 0 0 0 0 0 0 0 0 0 0 0 0 0 0 0 127 0" result="hardAlpha"/>
<feOffset dy="8"/>
<feGaussianBlur stdDeviation="5"/>
<feColorMatrix type="matrix" values="0 0 0 0 0.0941176 0 0 0 0 0.317647 0 0 0 0 0.623529 0 0 0 0.02 0"/>
<feBlend mode="normal" in2="BackgroundImageFix" result="effect1_dropShadow_1_357"/>
<feBlend mode="normal" in="SourceGraphic" in2="effect1_dropShadow_1_357" result="shape"/>
</filter>
</defs>
</svg>
