<svg width="335" height="58" viewBox="0 0 335 58" fill="none" xmlns="http://www.w3.org/2000/svg">
<path d="M326.12 0H8.88001C4.34391 0 0.666672 3.58172 0.666672 8V50C0.666672 54.4183 4.34391 58 8.88001 58H326.12C330.656 58 334.333 54.4183 334.333 50V8C334.333 3.58172 330.656 0 326.12 0Z" fill="url(#paint0_linear_1_46)"/>
<path d="M147.53 35.598C146.876 35.598 146.288 35.486 145.766 35.262C145.243 35.0287 144.832 34.702 144.534 34.282C144.235 33.862 144.086 33.372 144.086 32.812H145.794C145.831 33.232 145.994 33.5773 146.284 33.848C146.582 34.1187 146.998 34.254 147.53 34.254C148.08 34.254 148.51 34.1233 148.818 33.862C149.126 33.5913 149.28 33.246 149.28 32.826C149.28 32.4993 149.182 32.2333 148.986 32.028C148.799 31.8227 148.561 31.664 148.272 31.552C147.992 31.44 147.6 31.3187 147.096 31.188C146.461 31.02 145.943 30.852 145.542 30.684C145.15 30.5067 144.814 30.236 144.534 29.872C144.254 29.508 144.114 29.0227 144.114 28.416C144.114 27.856 144.254 27.366 144.534 26.946C144.814 26.526 145.206 26.204 145.71 25.98C146.214 25.756 146.797 25.644 147.46 25.644C148.402 25.644 149.172 25.882 149.77 26.358C150.376 26.8247 150.712 27.4687 150.778 28.29H149.014C148.986 27.9353 148.818 27.632 148.51 27.38C148.202 27.128 147.796 27.002 147.292 27.002C146.834 27.002 146.461 27.1187 146.172 27.352C145.882 27.5853 145.738 27.9213 145.738 28.36C145.738 28.6587 145.826 28.906 146.004 29.102C146.19 29.2887 146.424 29.438 146.704 29.55C146.984 29.662 147.366 29.7833 147.852 29.914C148.496 30.0913 149.018 30.2687 149.42 30.446C149.83 30.6233 150.176 30.8987 150.456 31.272C150.745 31.636 150.89 32.126 150.89 32.742C150.89 33.2367 150.754 33.7033 150.484 34.142C150.222 34.5807 149.835 34.9353 149.322 35.206C148.818 35.4673 148.22 35.598 147.53 35.598ZM153.585 26.764C153.296 26.764 153.053 26.666 152.857 26.47C152.661 26.274 152.563 26.0313 152.563 25.742C152.563 25.4527 152.661 25.21 152.857 25.014C153.053 24.818 153.296 24.72 153.585 24.72C153.865 24.72 154.103 24.818 154.299 25.014C154.495 25.21 154.593 25.4527 154.593 25.742C154.593 26.0313 154.495 26.274 154.299 26.47C154.103 26.666 153.865 26.764 153.585 26.764ZM154.369 27.786V35.5H152.773V27.786H154.369ZM159.572 27.66C160.17 27.66 160.697 27.7813 161.154 28.024C161.621 28.2573 161.985 28.5513 162.246 28.906V27.786H163.856V35.626C163.856 36.3353 163.707 36.9653 163.408 37.516C163.11 38.076 162.676 38.5147 162.106 38.832C161.546 39.1493 160.874 39.308 160.09 39.308C159.045 39.308 158.177 39.0607 157.486 38.566C156.796 38.0807 156.404 37.418 156.31 36.578H157.892C158.014 36.9793 158.27 37.3013 158.662 37.544C159.064 37.796 159.54 37.922 160.09 37.922C160.734 37.922 161.252 37.726 161.644 37.334C162.046 36.942 162.246 36.3727 162.246 35.626V34.338C161.976 34.702 161.607 35.01 161.14 35.262C160.683 35.5047 160.16 35.626 159.572 35.626C158.9 35.626 158.284 35.458 157.724 35.122C157.174 34.7767 156.735 34.3007 156.408 33.694C156.091 33.078 155.932 32.3827 155.932 31.608C155.932 30.8333 156.091 30.1473 156.408 29.55C156.735 28.9527 157.174 28.4907 157.724 28.164C158.284 27.828 158.9 27.66 159.572 27.66ZM162.246 31.636C162.246 31.104 162.134 30.642 161.91 30.25C161.696 29.858 161.411 29.5593 161.056 29.354C160.702 29.1487 160.319 29.046 159.908 29.046C159.498 29.046 159.115 29.1487 158.76 29.354C158.406 29.55 158.116 29.844 157.892 30.236C157.678 30.6187 157.57 31.076 157.57 31.608C157.57 32.14 157.678 32.6067 157.892 33.008C158.116 33.4093 158.406 33.7173 158.76 33.932C159.124 34.1373 159.507 34.24 159.908 34.24C160.319 34.24 160.702 34.1373 161.056 33.932C161.411 33.7267 161.696 33.428 161.91 33.036C162.134 32.6347 162.246 32.168 162.246 31.636ZM169.845 27.66C170.451 27.66 170.993 27.786 171.469 28.038C171.954 28.29 172.332 28.6633 172.603 29.158C172.873 29.6527 173.009 30.25 173.009 30.95V35.5H171.427V31.188C171.427 30.4973 171.254 29.97 170.909 29.606C170.563 29.2327 170.092 29.046 169.495 29.046C168.897 29.046 168.421 29.2327 168.067 29.606C167.721 29.97 167.549 30.4973 167.549 31.188V35.5H165.953V27.786H167.549V28.668C167.81 28.3507 168.141 28.1033 168.543 27.926C168.953 27.7487 169.387 27.66 169.845 27.66ZM179.493 26.764C179.204 26.764 178.961 26.666 178.765 26.47C178.569 26.274 178.471 26.0313 178.471 25.742C178.471 25.4527 178.569 25.21 178.765 25.014C178.961 24.818 179.204 24.72 179.493 24.72C179.773 24.72 180.011 24.818 180.207 25.014C180.403 25.21 180.501 25.4527 180.501 25.742C180.501 26.0313 180.403 26.274 180.207 26.47C180.011 26.666 179.773 26.764 179.493 26.764ZM180.277 27.786V35.5H178.681V27.786H180.277ZM186.265 27.66C186.871 27.66 187.413 27.786 187.889 28.038C188.374 28.29 188.752 28.6633 189.023 29.158C189.293 29.6527 189.429 30.25 189.429 30.95V35.5H187.847V31.188C187.847 30.4973 187.674 29.97 187.329 29.606C186.983 29.2327 186.512 29.046 185.915 29.046C185.317 29.046 184.841 29.2327 184.487 29.606C184.141 29.97 183.969 30.4973 183.969 31.188V35.5H182.373V27.786H183.969V28.668C184.23 28.3507 184.561 28.1033 184.963 27.926C185.373 27.7487 185.807 27.66 186.265 27.66Z" fill="white"/>
<defs>
<linearGradient id="paint0_linear_1_46" x1="167.5" y1="0" x2="167.5" y2="58" gradientUnits="userSpaceOnUse">
<stop stop-color="#4DD969"/>
<stop offset="1" stop-color="#28CD56"/>
</linearGradient>
</defs>
</svg>
